<svg version="1.1" id="Layer_1" xmlns="http://www.w3.org/2000/svg" xmlns:xlink="http://www.w3.org/1999/xlink" x="0px" y="0px" viewBox="540.1 -5.2 174.9 120.1" style="enable-background:new 540.1 -5.2 174.9 120.1;" xml:space="preserve">
 <style type="text/css">
  .st0{fill:#F94A29;}
	.st1{fill:#FA9F29;}
	.st2{opacity:0.2;enable-background:new    ;}
 </style>
 <g>
  <g>
   <g>
    <path id="XMLID_20_" class="st0" d="M580.6,88.8c3.3-8.6,9.6-15.7,17.8-20l14,8c5.6,3.2,4.4,11.9-0.6,14.8l-28.5,16.3
				c-1.6,0.9-3.7,0.3-4.5-1.4c-0.2-0.4-0.3-0.8-0.4-1.2C577.8,99.7,578.6,94.1,580.6,88.8z">
    </path>
    <path class="st1" d="M625.1,51.5c0-4.8-2.5-9.3-6.5-12L540.1-5.2c0.3,7.8,1.8,15.6,4.4,23c6,16.3,17.6,30.1,32.7,39l35,20
				c5.6,3.2,4.4,12-0.6,14.8l8.8-5c2.8-1.6,4.5-4.5,4.5-7.7V68.7C624.9,68.6,625.1,51.5,625.1,51.5z">
    </path>
    <path class="st2" d="M612.2,76.8l-14-8c0,0,8.9,7.5,12.3,11.3c3.3,3.7,1.1,11.4,1.1,11.4C616.7,88.9,617.8,80,612.2,76.8z">
    </path>
    <path id="XMLID_19_" class="st0" d="M674.6,20.9c-3.3,8.6-9.6,15.7-17.8,20l-14-8c-5.6-3.2-4.4-11.9,0.6-14.8l28.5-16.3
				c1.6-0.9,3.7-0.3,4.5,1.4c0.2,0.4,0.3,0.8,0.4,1.2C677.3,10,676.5,15.6,674.6,20.9z">
    </path>
    <path class="st1" d="M630,58.2c0,4.8,2.5,9.3,6.5,12l78.5,44.7c-0.3-7.8-1.8-15.6-4.4-23c-6-16.3-17.6-30.1-32.7-39l-35-20
				c-5.6-3.2-4.4-12,0.6-14.8l-8.8,5c-2.8,1.6-4.5,4.5-4.5,7.7V41C630.2,41.1,630,58.2,630,58.2z">
    </path>
    <path class="st2" d="M642.9,32.9l14,8c0,0-8.9-7.5-12.3-11.3c-3.3-3.7-1.1-11.4-1.1-11.4C638.4,20.8,637.3,29.7,642.9,32.9z">
    </path>
   </g>
  </g>
 </g>
</svg>