<?xml version="1.0" encoding="UTF-8"?>
<svg id="Layer_1" xmlns="http://www.w3.org/2000/svg" version="1.1" viewBox="0 0 150 150">
  <!-- Generator: Adobe Illustrator 30.0.0, SVG Export Plug-In . SVG Version: 2.1.1 Build 123)  -->
  <defs>
    <style>
      .st0 {
        fill: #4e68ff;
      }

      .st1 {
        fill: #00f6b6;
      }
    </style>
  </defs>
  <path class="st0" d="M92.23,147.97c40.31-9.52,65.27-49.9,55.75-90.2C138.46,17.47,98.07-7.49,57.77,2.02,17.47,11.54-7.49,51.93,2.02,92.23c9.52,40.3,49.91,65.26,90.2,55.74Z"/>
  <path class="st1" d="M147.98,57.77c-1.36-5.77-3.35-11.21-5.88-16.3l-.02.02-47.22,43.65c-2.95,2.73-7.34,3.2-10.81,1.17l-20.07-11.75c-3.25-1.89-7.32-1.61-10.26.72-12.43,9.84-44.26,35.01-44.71,35.38,15.7,29.11,49.48,45.29,83.22,37.31,40.31-9.52,65.27-49.9,55.75-90.2Z"/>
</svg>